<svg viewBox="0 0 230 118" xmlns="http://www.w3.org/2000/svg"><path d="m3.85 50.15c-.14-2.89-.27-5.78-.41-8.67-.15-3.17-.3-6.35-.44-9.48-.1-2.45-.23-4.9-.13-7.35a27.26 27.26 0 0 1 .71-5.76 13.75 13.75 0 0 1 6.67-8.78 32 32 0 0 1 5-2.32 73.74 73.74 0 0 1 9.34-2.79c3.16-.75 6.35-1.34 9.56-1.8q2.74-.39 5.5-.64a88 88 0 0 1 11.82-.34c1.66.06 3.31.17 5 .33 1.33.13 2.65.27 4 .44 2.43.3 4.85.7 7.26 1.16a93.15 93.15 0 0 1 10 2.5 50 50 0 0 1 6.17 2.35 23.67 23.67 0 0 1 2.7 1.49 13.66 13.66 0 0 1 6.09 8.88 27.54 27.54 0 0 1 .58 5.28q.06 3.3-.1 6.58c-.08 1.61-.13 3.22-.2 4.83-.12 2.59-.25 5.18-.37 7.77-.06 1.26-.11 2.52-.17 3.78-.11 2.61-.23 5.22-.34 7.83l-.36 8.82c-.14 3.39-.14 6.77-.16 10.16 0 1.84-.12 3.69-.3 5.52a27.25 27.25 0 0 1 -.73 4.13 17.7 17.7 0 0 1 -2.81 6 41.42 41.42 0 0 1 -4.11 4.86 84.05 84.05 0 0 1 -11.49 9.82 80.22 80.22 0 0 1 -12.54 7.49 44.22 44.22 0 0 1 -8.33 3 27 27 0 0 1 -2.82.55 2.66 2.66 0 0 1 -.69 0 34 34 0 0 1 -7.29-1.95 63.16 63.16 0 0 1 -9.67-4.73 90.76 90.76 0 0 1 -16.5-12.49 54.63 54.63 0 0 1 -5.29-5.8 19.28 19.28 0 0 1 -3.89-9.46c-.23-1.72-.36-3.43-.43-5.16-.13-3 0-6-.13-9-.09-3.24-.2-6.48-.36-9.73-.1-1.6-.19-3.23-.19-4.87 0-.81-.08-1.63-.12-2.44" fill="#121a50"/><path d="m5.13 50.07c-.13-3.36-.31-6.72-.47-10.07-.12-2.64-.25-5.28-.35-7.91-.07-1.68-.13-3.36-.16-5a39.78 39.78 0 0 1 .25-5.46 16.36 16.36 0 0 1 1-4.14 12 12 0 0 1 4-5.27 20.53 20.53 0 0 1 4.39-2.45 60 60 0 0 1 8-2.67q5.36-1.41 10.82-2.28 3.87-.62 7.78-1a78 78 0 0 1 9.79-.36c1.82.06 3.64.18 5.45.35 1.51.14 3 .3 4.52.5q3.38.45 6.7 1.09a97.87 97.87 0 0 1 10.27 2.5 49.86 49.86 0 0 1 5.88 2.1 20.2 20.2 0 0 1 3.19 1.76 12.38 12.38 0 0 1 5.29 7.88 25.58 25.58 0 0 1 .52 4.36c.08 2.17.05 4.34-.06 6.51-.07 1.24-.11 2.47-.16 3.71-.07 1.63-.13 3.27-.2 4.9q-.17 3.6-.35 7.21c0 1.12-.11 2.24-.16 3.36-.07 1.63-.13 3.26-.2 4.9-.11 2.66-.25 5.31-.34 8s-.2 5.36-.19 8c0 2.17 0 4.34-.12 6.51a35.17 35.17 0 0 1 -.83 6.38 16.65 16.65 0 0 1 -2.63 5.76 43.27 43.27 0 0 1 -4.18 4.9 84 84 0 0 1 -9.73 8.43 84.74 84.74 0 0 1 -12.2 7.67 47.73 47.73 0 0 1 -8.65 3.53 32.91 32.91 0 0 1 -3.27.74 4.06 4.06 0 0 1 -1.39 0 34.6 34.6 0 0 1 -7.18-2.11 65.8 65.8 0 0 1 -9.95-5.11 91.45 91.45 0 0 1 -15-11.55 50 50 0 0 1 -5.27-5.8 17.66 17.66 0 0 1 -3.44-8 43.54 43.54 0 0 1 -.55-6.35c0-3.1-.06-6.21-.14-9.31s-.27-6.28-.39-9.42c0-1.22-.11-2.43-.16-3.64 0-1-.08-2.1-.13-3.15z" fill="#f2dba8"/><path d="m7.07 49.78c-.12-2.42-.26-5.17-.39-7.92l-.15-3.22c-.07-1.66-.13-3.32-.2-5s-.14-3.18-.2-4.76a50.92 50.92 0 0 1 .12-6.3 16.9 16.9 0 0 1 .78-4 9.89 9.89 0 0 1 3.39-4.78 18.52 18.52 0 0 1 4.14-2.32 52.29 52.29 0 0 1 5.69-1.95 107.7 107.7 0 0 1 11.33-2.53c2.4-.42 4.8-.78 7.2-1.06 1.83-.21 3.67-.38 5.51-.5s3.69-.15 5.53-.1 3.55.19 5.31.36 3.62.39 5.43.65c2.61.37 5.2.82 7.79 1.35 3 .62 6 1.34 9 2.25a45.44 45.44 0 0 1 4.93 1.81 19.57 19.57 0 0 1 2.7 1.47 10.25 10.25 0 0 1 4.53 6.49 22.68 22.68 0 0 1 .49 4.13c.1 2.38.06 4.77 0 7.15-.07 1.4-.12 2.8-.18 4.2-.07 1.61-.13 3.22-.2 4.83-.12 2.56-.25 5.13-.37 7.7-.13 2.77-.26 5.55-.38 8.32-.06 1.17-.11 2.34-.15 3.5-.14 4.2-.33 8.4-.31 12.61 0 2 0 3.92-.17 5.88a30.73 30.73 0 0 1 -.67 4.78 14.86 14.86 0 0 1 -2.46 5.45 41.64 41.64 0 0 1 -3.8 4.48 81 81 0 0 1 -10.31 8.82 79.51 79.51 0 0 1 -11.91 7.33 44.53 44.53 0 0 1 -7.75 3c-.87.24-1.76.43-2.66.6a3.82 3.82 0 0 1 -1.39 0 34.59 34.59 0 0 1 -6.62-2 64.52 64.52 0 0 1 -9.64-5 88.86 88.86 0 0 1 -13.7-10.42 60.42 60.42 0 0 1 -5.33-5.63 16.44 16.44 0 0 1 -3.66-8.34 49.64 49.64 0 0 1 -.47-5.11c-.13-3.06 0-6.12-.14-9.18s-.23-6.3-.35-9.45c0-1.12-.1-2.24-.15-3.36-.05-1.28-.1-2.57-.17-4.18" fill="#121a50"/><g fill="#f2dba8"><path d="m80.56 62.7a32.68 32.68 0 1 1 -32.62-32.7 32.66 32.66 0 0 1 32.6 32.72"/><path d="m79.91 13.9a6.6 6.6 0 0 1 3.74 1.45 4.69 4.69 0 0 1 1.43 5.37c-.47 1.24-1 2.48-1.45 3.71-1 2.51-2.16 5-3.29 7.42a5.48 5.48 0 0 1 -.52.91 4.07 4.07 0 0 1 -4.23 1.71 6.55 6.55 0 0 1 -3.65-1.95 3.9 3.9 0 0 1 -1-3.87 4.64 4.64 0 0 1 .22-.66c.68-1.59 1.23-3.22 1.8-4.85.49-1.42 1.14-2.76 1.71-4.14q.47-1.14 1-2.25a7.11 7.11 0 0 1 .53-1 4.12 4.12 0 0 1 3.7-1.85"/><path d="m27.36 31.16-.31.14-3.38 1.15c-.41.14-.42.14-.64-.26l-1.24-2.27c-.18-.32-.19-.32-.55-.17l-1.75.71c-.22.09-.24.15-.17.37.27.92.54 1.84.82 2.75a.27.27 0 0 1 -.13.35l-3.44 1.85a.84.84 0 0 1 -.24-.51q-1.68-6.85-3.33-13.72c-.39-1.61-.79-3.21-1.18-4.82l-.06-.2c-.09-.39-.07-.43.29-.58l3.6-1.55.77-.32a.24.24 0 0 1 .31.09 3 3 0 0 1 .18.3q5.09 8.1 10.18 16.22c.08.14.16.28.28.47"/><path d="m58.35 12.62a6.68 6.68 0 0 1 -1.34 0l-3.21-.2h-.35a.24.24 0 0 0 -.23.22s0 .05 0 .07c-.06.93-.12 1.86-.17 2.8 0 .24 0 .29.27.32l.84.07 3.22.18c.44 0 .45.05.44.51v.84c-.05.84-.1 1.68-.16 2.52 0 .27-.08.32-.35.32s-.7 0-1-.06l-3.03-.21h-.14c-.34 0-.37 0-.39.33l-.12 1.61c0 .56-.06 1.12-.08 1.68 0 .3 0 .36.35.38l2.86.17c.61 0 1.21.09 1.82.12a.23.23 0 0 1 .25.21.13.13 0 0 1 0 .06v.35c-.06 1.1-.12 2.19-.19 3.29 0 .39-.06.41-.48.39l-6-.37-2.62-.22c-.26 0-.31-.08-.31-.35s0-.8.06-1.19q.27-4.55.56-9.09l.42-6.64.15-2.38a2 2 0 0 1 0-.42.2.2 0 0 1 .2-.16h.14l4.89.32 2.93.18h.63c.34 0 .37.06.37.37v.35c-.06.93-.11 1.86-.17 2.8 0 .25-.06.5-.09.77"/><path d="m38.12 21.63h1.55c.27 0 .3 0 .31.34s0 .7 0 1.05a4.58 4.58 0 0 0 .15 1 1.91 1.91 0 0 0 .41.8 1.1 1.1 0 0 0 1.53 0 1.66 1.66 0 0 0 .16-.21l.07-.12a3 3 0 0 0 -.44-3.14 11.8 11.8 0 0 0 -1.69-1.47 14.51 14.51 0 0 1 -2.17-1.88 7.92 7.92 0 0 1 -1.5-2.18 4.66 4.66 0 0 1 -.5-1.82 10.65 10.65 0 0 1 .28-2.92 4.35 4.35 0 0 1 4.52-3.48 6.26 6.26 0 0 1 1.67.14 3.83 3.83 0 0 1 2.89 2.58 11.12 11.12 0 0 1 .5 2.74v1c0 .18-.09.25-.26.25l-3 .12c-.38 0-.42-.05-.42-.38a7.17 7.17 0 0 0 -.11-1.53 2.61 2.61 0 0 0 -.33-.92 1 1 0 0 0 -1.3-.31 1 1 0 0 0 -.24.22 1.56 1.56 0 0 0 -.33.77 2.55 2.55 0 0 0 .89 2.72c.7.55 1.38 1.12 2.07 1.68a16.86 16.86 0 0 1 2.29 2.26c.22.26.43.55.63.84a5.44 5.44 0 0 1 .91 3.39 8.3 8.3 0 0 1 -.31 2.21 4.28 4.28 0 0 1 -3.13 3.1 7.67 7.67 0 0 1 -3.95.05 3.48 3.48 0 0 1 -2.27-1.71 6.71 6.71 0 0 1 -.81-2.8c0-.65 0-1.31 0-2 0-.27 0-.3.34-.31l1.61-.07v-.05"/><path d="m66.83 22.41c.16 0 .32.05.48.09l2.78.69.27.08a.2.2 0 0 1 .16.23 21.27 21.27 0 0 1 -1.15 3.74 7.38 7.38 0 0 1 -1.45 2.13 3.83 3.83 0 0 1 -3 1.15 7.81 7.81 0 0 1 -3-.78 3.84 3.84 0 0 1 -2.18-3 10.7 10.7 0 0 1 .06-3.48 48.83 48.83 0 0 1 2.07-8.42 14.6 14.6 0 0 1 1.13-2.57 7 7 0 0 1 1.1-1.45 3.9 3.9 0 0 1 2.9-1.18 6.54 6.54 0 0 1 2.91.68 4.1 4.1 0 0 1 2.31 3.21 9.22 9.22 0 0 1 -.18 3.27c-.1.5-.24 1-.37 1.5-.06.23-.12.27-.35.21l-2.32-.59-.82-.2c-.27-.07-.29-.12-.23-.4.15-.68.3-1.36.46-2.05a3.3 3.3 0 0 0 .05-1 .86.86 0 0 0 -.62-.85.93.93 0 0 0 -1.06.34 3.57 3.57 0 0 0 -.5.92 20.09 20.09 0 0 0 -.8 2.53c-.56 2.12-1.1 4.25-1.55 6.39a9.82 9.82 0 0 0 -.25 2 4.2 4.2 0 0 0 .05.7.9.9 0 0 0 .67.73.86.86 0 0 0 .94-.31 3.22 3.22 0 0 0 .47-.85 24.1 24.1 0 0 0 .82-2.87 1.86 1.86 0 0 1 .22-.61"/><path d="m30 21.83a6.54 6.54 0 0 0 -.17-1.46c-.3-2.08-.63-4.15-1-6.23-.15-1-.31-2.07-.47-3.11 0-.11 0-.23-.05-.35s.05-.25.22-.28l1.92-.4 1.78-.34c.23 0 .29 0 .31.25.05.44.09.88.13 1.32.16 1.79.31 3.58.48 5.37s.33 3.48.5 5.23l.35 3.78c.1 1.07.19 2.14.29 3.21v.28c0 .29 0 .32-.28.39l-3.32.84-.95.24a.24.24 0 0 1 -.32-.15c-.16-.39-.32-.78-.47-1.17l-6.45-16.43c-.1-.25-.3-.48-.2-.78l.73-.23 2.83-.8c.32-.08.44-.1.57.29.54 1.66 1.1 3.32 1.65 5l1.65 4.91a1.57 1.57 0 0 0 .3.64"/><path d="m35.26 102.38c.2-.06.22-.24.29-.38l1.45-3.08c.07-.15.13-.3.21-.44s.2-.25.39-.15c1.06.54 1 .27.47 1.26-.74 1.56-1.51 3.1-2.28 4.64a1.38 1.38 0 0 1 -.38.62 7 7 0 0 0 -.73-.35.69.69 0 0 1 -.48-.68c-.18-1.69-.38-3.38-.57-5.07-.2 0-.22.15-.28.27-.54 1.13-1.09 2.26-1.64 3.4a1.82 1.82 0 0 1 -.2.36s-.12.06-.18.07-.08 0-.13-.06c-1-.52-.93-.29-.46-1.27.73-1.53 1.5-3 2.24-4.58.08-.17.17-.33.25-.5a.23.23 0 0 1 .28-.11l.19.09c1 .52.83.26.94 1.32.16 1.48.35 3 .52 4.45a1.8 1.8 0 0 0 0 .19"/><path d="m66.91 96.18c-.06.17.08.25.16.36.72.94 1.44 1.89 2.17 2.83l.35.49a4.46 4.46 0 0 1 -.86.7.13.13 0 0 1 -.18 0 .67.67 0 0 1 -.14-.15l-3.86-5.11a3.2 3.2 0 0 1 1-.82c.13-.08.27 0 .4.07l3.15 1.17 1.44.53c.11 0 .22.11.34 0a2.22 2.22 0 0 0 -.39-.57c-.69-.91-1.38-1.82-2.08-2.72-.07-.1-.15-.19-.21-.28a.22.22 0 0 1 0-.29c.26-.2.52-.4.76-.57a.54.54 0 0 1 .3.24l3.58 4.75a2 2 0 0 1 .17.23.18.18 0 0 1 0 .25c-.28.22-.55.43-.84.64-.13.1-.26 0-.4 0l-3-1.09-1.57-.59a.47.47 0 0 0 -.4 0z"/><path d="m45.11 102.74-.74-.17c-.31 0-.5-.17-.5-.53a1 1 0 0 0 -.33-.61 2 2 0 0 0 -2.86 0l-.21.23a3.34 3.34 0 0 0 -.59 2.33 1.77 1.77 0 0 0 1.24 1.56 2.63 2.63 0 0 0 1.64.1.81.81 0 0 0 .67-.71.63.63 0 0 0 0-.36c-.43-.25-1-.2-1.45-.47l.12-.55c.09-.34.14-.37.49-.29l2.11.52c.29.07.31.11.25.38-.23 1-.46 1.9-.7 2.86-.06.26-.14.3-.4.24l-.27-.08c-.2 0-.24-.17-.26-.35s-.08-.28-.32-.19a3.35 3.35 0 0 1 -2.58-.17 3.12 3.12 0 0 1 -2-3.18 4.64 4.64 0 0 1 .46-1.75 3.06 3.06 0 0 1 3.12-1.81 3.86 3.86 0 0 1 2.14.78 2.29 2.29 0 0 1 1 2 .3.3 0 0 1 0 .13 1 1 0 0 1 -.07.15"/><path d="m76.55 87.9a5 5 0 0 1 -.76.77.2.2 0 0 1 -.26 0 1.25 1.25 0 0 0 -1.33 0 2.35 2.35 0 0 0 -1.2 1.27 1.57 1.57 0 0 0 0 1 3.21 3.21 0 0 0 1.93 2.16 1.61 1.61 0 0 0 1.6-.15 2.54 2.54 0 0 0 1.18-1.59.66.66 0 0 0 -.21-.75c-.11-.09-.2-.19-.32-.3a8.48 8.48 0 0 0 -1 .85c-.19.17-.22.17-.4 0l-.24-.25c-.25-.28-.25-.3 0-.57l1.58-1.49c.23-.21.25-.22.45 0l2.14 2.15c.11.12.14.23 0 .35s-.14.13-.2.2a.36.36 0 0 1 -.51.1.75.75 0 0 0 -.23 0 3.41 3.41 0 0 1 -1.31 2.08 3.14 3.14 0 0 1 -4.06.09 4.37 4.37 0 0 1 -1.47-1.82 2.91 2.91 0 0 1 .13-2.69 4 4 0 0 1 1.87-1.72 2.43 2.43 0 0 1 2.47.16l.1.09a.36.36 0 0 1 0 .09"/><path d="m27.72 92.52a3.56 3.56 0 0 1 3.37 2.78 2.94 2.94 0 0 1 -.09 1.58 4.19 4.19 0 0 1 -1.23 1.91 3 3 0 0 1 -3.44.55 3.67 3.67 0 0 1 -1.76-1.54 3 3 0 0 1 -.32-2.16 4.23 4.23 0 0 1 1.42-2.35 3 3 0 0 1 2.09-.77"/><path d="m61.62 97a3.14 3.14 0 0 1 2.49.9 4.2 4.2 0 0 1 1.23 3 2.88 2.88 0 0 1 -1 2.23 3.74 3.74 0 0 1 -2.54 1 3 3 0 0 1 -2.42-1.18 4.17 4.17 0 0 1 -.95-2.85 2.83 2.83 0 0 1 .79-1.89 3.6 3.6 0 0 1 2.4-1.21"/><path d="m20.36 89.5c.71.67 1.42 1.26 2.13 1.92a3.58 3.58 0 0 0 .64-.65c.19-.2.37-.42.56-.62l.61-.67a1.48 1.48 0 0 1 .21.13c.22.24.63.39.66.69s-.35.52-.56.76q-1.66 1.89-3.35 3.76l-.48.52a1.26 1.26 0 0 1 -.5-.37c-.15-.13-.3-.28-.47-.45l.57-.65c.4-.46.81-.9 1.21-1.36.18-.21.18-.25 0-.45l-1.72-1.54c-.18-.15-.24-.14-.4 0l-1.35 1.48-.48.52c-.08 0-.16-.05-.2-.1-.23-.25-.58-.39-.71-.75a4.94 4.94 0 0 1 .62-.75l3.35-3.76.43-.47c.27 0 .4.24.57.39.51.44.45.4.05.85l-1.38 1.57"/><path d="m52.4 100.25c.33 1 .41 1.93.75 2.83a1.11 1.11 0 0 0 .39-.54c.45-.84.89-1.68 1.32-2.54a.76.76 0 0 1 .62-.48c.32 0 .63-.14.94-.22.13.18 0 .29-.06.39-.45.87-.92 1.73-1.38 2.6-.17.32-.17.33.1.59l2.6 2.43a1.52 1.52 0 0 1 .47.54 4.71 4.71 0 0 1 -1.28.32c-.16 0-.25-.09-.35-.19l-1.92-1.84-.4-.39c-.14-.12-.22-.12-.33 0a.1.1 0 0 0 0 0c-.4.59-.4.59-.24 1.29l.36 1.5c0 .17 0 .25-.2.3a2.61 2.61 0 0 1 -.27.06c-.78.2-.72.25-.9-.54l-1.33-5.36-.06-.2c0-.16 0-.28.18-.32l1-.24"/></g><path d="m66.65 87.08a1.73 1.73 0 0 1 -.52.45 30.65 30.65 0 0 1 -13 5.54 28.89 28.89 0 0 1 -6.63.41 30.62 30.62 0 0 1 -17.5-6.48 2.13 2.13 0 0 1 -.1-1c.88-6.4 1.71-12.82 2.59-19.22a2.31 2.31 0 0 1 .15-.68 1.57 1.57 0 0 1 1-.51c3.62-1.07 7.26-2.11 10.85-3.29.74-.25.95-.1.93.7 0 1.89.12 3.77.19 5.66.1 2.75.12 5.5.37 8.24.21 2.4.22 2.41-1.82 3.7s-3.89 2.4-5.82 3.57a1.14 1.14 0 0 0 -.65 1.2v.49c0 1.6-.09 1.47 1.45 1.15 2-.43 4.06-.88 6.1-1.27 1.14-.22 1.27-.14 1.61.94a5.72 5.72 0 0 0 1.45 2.45c.54.52.81.53 1.36 0a5.91 5.91 0 0 0 1.47-2.67c.23-.86.34-.94 1.23-.78 2.18.4 4.34.91 6.51 1.37l.75.16c.46.11.63-.07.66-.53.13-1.94.11-2-1.56-3q-3.11-1.89-6.2-3.81a1.06 1.06 0 0 1 -.62-1.15 39.05 39.05 0 0 0 .2-4.19c.1-1.6.13-3.21.2-4.82.1-2.26.05-4.52.27-6.78.07-.71.2-.8.89-.58 3.58 1.14 7.18 2.21 10.79 3.26.36.1.74.16 1 .52.34 1.93.52 3.88.77 5.82q.9 7.14 1.76 14.29a1.15 1.15 0 0 1 -.08.87" fill="#121a50"/><path d="m31.76 66.07c-.13 1-.25 2-.38 3-.16 1.25-.33 2.5-.5 3.75-.2 1.52-.4 3-.61 4.58-.17 1.25-.33 2.49-.5 3.74-.22 1.6-.44 3.19-.65 4.79-.05.37-.09.74-.13 1.11a31.88 31.88 0 0 1 -6.9-7.46 34.28 34.28 0 0 1 -2.63-4.93 28.31 28.31 0 0 1 -1.7-5.31 29.46 29.46 0 0 1 -.49-3 38.09 38.09 0 0 1 -.27-4.63c0-.45.15-.88.13-1.32a11.58 11.58 0 0 1 .17-2 30 30 0 0 1 .76-3.75 30.57 30.57 0 0 1 2.69-6.64 32.59 32.59 0 0 1 5.78-7.59 31.46 31.46 0 0 1 5.37-4.11c.62-.37 1.25-.74 1.89-1.06s1.52-.71 2.28-1.06c.23.24.13.53.1.8-.63 4.76-1.29 9.51-1.91 14.27-.27 2-.55 4-.8 5.95a3.22 3.22 0 0 1 -.23 1c-.38.4-.87.25-1.32.25-1.74 0-1.52-.17-1.54 1.54 0 2.16.19 1.7-1.56 2.79q-4.41 2.69-8.81 5.38a1 1 0 0 0 -.56 1.14 7.37 7.37 0 0 1 0 1.33c0 .67.08.72.75.53 2.23-.62 4.45-1.27 6.67-1.9 1.37-.39 2.73-.82 4.1-1.18.26-.07.53-.25.79 0" fill="#a4c2df"/><path d="m66.65 87.08c-.25-2-.5-4.07-.76-6.1s-.53-4.11-.78-6.17-.5-4.16-.76-6.24c-.1-.83-.25-1.66-.28-2.5.31-.24.63-.06.93 0q5.2 1.52 10.42 3c.91.26.91.26 1-.67v-.21a2.13 2.13 0 0 0 -1.21-2.49c-3-1.72-6-3.62-9-5.44a1.53 1.53 0 0 1 -.87-1.53c0-.44 0-.88 0-1.33 0-1 0-1-1-1-.33 0-.65 0-1 0a.84.84 0 0 1 -.71-.22 1.93 1.93 0 0 1 -.24-.87c-.83-6.62-1.62-13.25-2.47-19.87a1.33 1.33 0 0 1 .13-1.08 1.56 1.56 0 0 1 .65.24 31.69 31.69 0 0 1 6.36 3.91 16.62 16.62 0 0 1 1.78 1.58c.53.56 1.08 1.09 1.63 1.64a26.79 26.79 0 0 1 2.53 2.94 30.19 30.19 0 0 1 2.92 5 32.6 32.6 0 0 1 1.7 4.57c.33 1.12.53 2.27.77 3.4.11.5.1 1 .19 1.52a18.64 18.64 0 0 1 .11 2.84 2 2 0 0 0 .06.49.79.79 0 0 1 0 .48 2.57 2.57 0 0 0 -.07.83 23.18 23.18 0 0 1 -.4 4.16 29.2 29.2 0 0 1 -1.15 4.6 28.21 28.21 0 0 1 -1.92 4.44 31.09 31.09 0 0 1 -3.4 5.11 31.88 31.88 0 0 1 -2.81 3.09c-.69.63-1.41 1.22-2.12 1.82a.53.53 0 0 1 -.2.07" fill="#a4c2df"/><path d="m60.15 34.39a16.12 16.12 0 0 0 .22 2.08c.15 1.39.34 2.78.51 4.16s.34 2.64.5 3.95l.48 3.89c.16 1.34.33 2.68.5 4l.45 3.75a.5.5 0 0 1 0 .13c0 .48.23 1.06-.24 1.36s-.76-.21-1.12-.4-.83-.51-1.26-.75a1.47 1.47 0 0 1 -.82-1.49c0-.54 0-1.08 0-1.61s-.16-.7-.65-.68c-.33 0-.65 0-1 0-.87 0-.88 0-1.08.84-.1.39-.31.54-.66.34-1.39-.81-2.78-1.63-4.12-2.53a1 1 0 0 1 -.35-.58 3.61 3.61 0 0 1 -.14-1c.09-2.53-.14-5-.16-7.56a14.12 14.12 0 0 0 -1.1-6 7.51 7.51 0 0 0 -.86-1.44 1.62 1.62 0 0 0 -2.21-.62 1.72 1.72 0 0 0 -.61.59 9.35 9.35 0 0 0 -1.66 4.27 12.81 12.81 0 0 0 -.17 2.23c0 3.08-.26 6.15-.27 9.23a1.14 1.14 0 0 1 -.61 1c-1.24.74-2.46 1.53-3.72 2.25-.67.38-.86.3-1-.45-.05-.44-.24-.61-.67-.61-2.21 0-1.85-.25-1.89 1.75v1a.93.93 0 0 1 -.43.76 26.68 26.68 0 0 1 -2.28 1.39c-.5.26-.68.16-.73-.4a3 3 0 0 1 0-1c.12-.93.23-1.85.35-2.78.17-1.22.33-2.45.5-3.67l.51-3.74c.16-1.2.31-2.4.47-3.6.22-1.59.43-3.19.65-4.78l.48-3.53a30 30 0 0 1 6.84-2 31.41 31.41 0 0 1 8.27-.14 30.93 30.93 0 0 1 8.2 2 3.33 3.33 0 0 1 .87.42" fill="#121a50"/><path d="m75 29.47a3 3 0 0 1 .27-1.1c.5-1.3 1-2.61 1.52-3.9.66-1.65 1.35-3.28 2-4.9.17-.39.36-.77.55-1.14a1.71 1.71 0 0 1 .73-.73.75.75 0 0 1 1 .15 1.08 1.08 0 0 1 .3 1.15c-.07.22-.14.44-.23.66-.61 1.54-1.24 3.07-1.92 4.58-.6 1.31-1.1 2.67-1.65 4-.19.45-.39.9-.6 1.34a3.9 3.9 0 0 1 -.28.49c-.29.42-.58.54-.93.42a1 1 0 0 1 -.78-1v-.05" fill="#121a50"/><path d="m15.9 19.24c.52.93 1 1.86 1.57 2.8.68 1.22 1.34 2.45 2 3.68l.16.3c.11.22.1.29-.12.38l-1.29.5a.63.63 0 0 1 -.24-.43l-2-6.56a1.21 1.21 0 0 1 -.11-.68z" fill="#121a50"/><path d="m15.91 19.23h-.05" fill="#121a50"/><path d="m66.91 96.18s-.09 0-.1 0 0 0 0 0 .07 0 0 .09z" fill="#121a50"/><path d="m29.81 95.86a3.09 3.09 0 0 1 -1.61 2.35 1.72 1.72 0 0 1 -2-.18 1.78 1.78 0 0 1 -.73-1.85 3.22 3.22 0 0 1 1.14-2 1.91 1.91 0 0 1 3.17 1.63" fill="#121a50"/><path d="m64 100.75a1.93 1.93 0 0 1 -1.19 2 1.8 1.8 0 0 1 -2-.43 3.15 3.15 0 0 1 -1-2.18 1.86 1.86 0 0 1 1.19-1.83 1.79 1.79 0 0 1 2.1.48 3.16 3.16 0 0 1 .9 2" fill="#121a50"/><path d="m33.12 56.24c.15.08.14.22.15.36v1c.15.1.25 0 .34 0 .8-.48 1.59-1 2.39-1.45a.57.57 0 0 0 .32-.57c0-.77 0-1.54 0-2.31 0-.14 0-.28 0-.42a.22.22 0 0 1 .22-.21h2.39c.34 0 .35 0 .39.34s-.13.69.1 1a3.35 3.35 0 0 0 .91-.5c1.16-.7 2.31-1.42 3.47-2.11a.71.71 0 0 0 .4-.66c0-2 .1-4 .15-6 0-1.5.06-3 .15-4.48a11.62 11.62 0 0 1 1.36-4.82 3.92 3.92 0 0 1 .85-1.1 1.63 1.63 0 0 1 2.23 0 3.9 3.9 0 0 1 .94 1.12 10.59 10.59 0 0 1 1.12 2.77 9.9 9.9 0 0 1 .36 2.42c.08 3.32.2 6.63.3 9.94a2.61 2.61 0 0 1 0 .28.47.47 0 0 0 .28.45l1.73 1.06 2.45 1.5a.43.43 0 0 0 .36.1 7 7 0 0 0 0-1c0-.24.07-.3.29-.3h2.52a.2.2 0 0 1 .22.19v.56 2.24a.45.45 0 0 0 .19.42l2.7 1.62s.05 0 .12 0a5.65 5.65 0 0 0 0-1c0-.16 0-.33.17-.42h2.1a3.93 3.93 0 0 1 .49 0 .24.24 0 0 1 .23.22v.49 2.17a.76.76 0 0 0 .42.74c1 .6 2 1.22 3 1.83l4.12 2.52 3 1.82c.14.08.27.18.41.27a.35.35 0 0 1 .17.35 9.74 9.74 0 0 1 -.1 2v.63a.21.21 0 0 1 -.22.21h-.08l-1.61-.45-6.83-1.95-3.48-1a1.26 1.26 0 0 0 -.28 0 3.19 3.19 0 0 0 -.85-.3c-3.4-1-6.81-2-10.18-3.08-.4-.12-.8-.26-1.17-.39-.16.09-.13.21-.13.32-.1 2.73-.17 5.46-.28 8.19s-.23 5.27-.35 7.91a.08.08 0 0 1 0 .07.75.75 0 0 0 .44.84c2.43 1.47 4.86 3 7.28 4.46.65.4.59.27.59 1v1.87c0 .53 0 .55-.57.43-1.14-.25-2.27-.51-3.42-.75l-4.11-.85-.62-.1a.18.18 0 0 0 -.21.13c0 .16-.08.32-.12.48a7 7 0 0 1 -.9 2.11 4.43 4.43 0 0 1 -1 1c-.51.4-.63.4-1.15 0a4.35 4.35 0 0 1 -.92-1 7.89 7.89 0 0 1 -.89-2.12c-.16-.58 0-.63-.74-.49-1.46.28-2.93.58-4.39.89l-3.34.71a.69.69 0 0 1 -.47 0 .52.52 0 0 1 -.06-.34c0-.75 0-1.5 0-2.24a.67.67 0 0 1 .39-.67c1.24-.74 2.47-1.51 3.7-2.26l3.76-2.31.24-.15a.45.45 0 0 0 .24-.46c0-.7 0-1.4-.07-2.1-.08-1.91-.17-3.82-.25-5.74-.1-2.59-.18-5.18-.27-7.77 0-.37 0-.73 0-1.11a1 1 0 0 0 -.25 0c-3.11 1.08-6.28 2-9.43 2.9-.92.27-1.83.56-2.74.84l-2.22.6c-2.74.78-5.49 1.57-8.23 2.37l-1.4.41-.33.1a.24.24 0 0 1 -.29-.18.06.06 0 0 1 0 0c0-.16 0-.32 0-.49a9.66 9.66 0 0 0 -.12-2 .5.5 0 0 1 .26-.54c.17-.11.36-.2.54-.31l5.66-3.46 4.28-2.62a.59.59 0 0 0 .32-.57c0-.75 0-1.49 0-2.24v-.49c0-.27.08-.33.34-.34h2.58" fill="#ecdaaf"/><path d="m104.24 60.74h122.91" fill="none" stroke="#121a50" stroke-miterlimit="10"/><path d="m111.67 38.08h4.33l6.51 18.41h-4.17l-1.21-3.78h-6.79l-1.25 3.78h-4zm-.25 11.45h4.72l-2.33-7.24z" fill="#121a50"/><path d="m137.1 38.08h4l-6.28 18.41h-3.63l-6.19-18.41h4.11l4 14z" fill="#121a50"/><path d="m149.5 50.81a3.76 3.76 0 0 0 .7 1.89 4.11 4.11 0 0 0 3.28 1.13 7.1 7.1 0 0 0 2.26-.3 2.14 2.14 0 0 0 1.64-2.13 1.6 1.6 0 0 0 -.8-1.42 8.93 8.93 0 0 0 -2.56-.86l-2-.43a12.58 12.58 0 0 1 -4-1.42 4.49 4.49 0 0 1 -1.86-4 5.3 5.3 0 0 1 1.82-4.11 7.74 7.74 0 0 1 5.36-1.64 8.17 8.17 0 0 1 5 1.54 5.49 5.49 0 0 1 2.19 4.48h-3.7a2.65 2.65 0 0 0 -1.49-2.36 5.05 5.05 0 0 0 -2.29-.46 4.38 4.38 0 0 0 -2.44.6 1.91 1.91 0 0 0 -.91 1.67 1.59 1.59 0 0 0 .9 1.48 11.58 11.58 0 0 0 2.45.76l3.23.76a8.16 8.16 0 0 1 3.19 1.34 4.51 4.51 0 0 1 1.64 3.76 5.28 5.28 0 0 1 -2 4.19 8.24 8.24 0 0 1 -5.48 1.72 9 9 0 0 1 -5.72-1.64 5.45 5.45 0 0 1 -2.09-4.52z" fill="#121a50"/><path d="m180.74 41.34h-9.74v3.91h8.95v3.2h-8.95v4.73h10.2v3.31h-14v-18.41h13.51z" fill="#121a50"/><path d="m189.27 40a7.58 7.58 0 0 1 5.67-2.27c3.06 0 5.3 1 6.72 3.05a6.66 6.66 0 0 1 1.26 3.43h-3.85a5.25 5.25 0 0 0 -.94-2 3.8 3.8 0 0 0 -3-1.2 3.75 3.75 0 0 0 -3.24 1.7 8.25 8.25 0 0 0 -1.19 4.79 7.3 7.3 0 0 0 1.25 4.64 3.93 3.93 0 0 0 3.19 1.54 3.62 3.62 0 0 0 3-1.32 5.88 5.88 0 0 0 .95-2.14h3.82a8.32 8.32 0 0 1 -2.52 4.9 7.37 7.37 0 0 1 -5.24 1.88 7.82 7.82 0 0 1 -6.15-2.54 10.28 10.28 0 0 1 -2.25-7c-.04-3.24.82-5.72 2.52-7.46z" fill="#121a50"/><path d="m223.51 54.86a9.55 9.55 0 0 1 -12.07 0q-2.81-2.64-2.8-7.6c0-3.37.93-5.91 2.8-7.6a9.55 9.55 0 0 1 12.07 0c1.85 1.69 2.78 4.23 2.78 7.6s-.93 5.84-2.78 7.6zm-2.41-2.8a7.53 7.53 0 0 0 1.34-4.8 7.5 7.5 0 0 0 -1.34-4.79 4.4 4.4 0 0 0 -3.63-1.69 4.47 4.47 0 0 0 -3.65 1.68 7.48 7.48 0 0 0 -1.36 4.8 7.48 7.48 0 0 0 1.36 4.8 4.48 4.48 0 0 0 3.65 1.69 4.42 4.42 0 0 0 3.63-1.69z" fill="#121a50"/><path d="m109.33 72.85c-.12-.33-.39-.89-.64-1.39v5.93h-.78v-5.71a13.18 13.18 0 0 1 -1.13 3.15 5.71 5.71 0 0 0 -.38-.87 15.2 15.2 0 0 0 1.44-4.38h-1.2v-.84h1.27v-2.3h.78v2.3h1v.84h-1v.78c.26.42.91 1.54 1.07 1.83zm7.34.88a7.05 7.05 0 0 1 -1.48 1.92 1.73 1.73 0 0 0 1.25.87c.25 0 .41-.44.5-1.3a3 3 0 0 0 .6.46c-.23 1.3-.6 1.75-1.08 1.71a2.42 2.42 0 0 1 -1.89-1.22 10.12 10.12 0 0 1 -2.1 1.16 3 3 0 0 0 -.48-.56 9.07 9.07 0 0 0 2.23-1.25 12 12 0 0 1 -.7-2.19h-2v.18a2.53 2.53 0 0 1 0 .27 20.52 20.52 0 0 1 1.65 1.43l-.55.54c-.28-.29-.74-.73-1.21-1.13a4.73 4.73 0 0 1 -1.76 2.8 2.32 2.32 0 0 0 -.59-.54 4 4 0 0 0 1.7-3.39v-.16h-.91v-.72h3.5a46 46 0 0 1 -.51-6.07h.76a41.15 41.15 0 0 0 .53 6.07h1.72a9.76 9.76 0 0 0 -1.07-.77l.45-.42a8.22 8.22 0 0 1 1.25.86l-.31.33h1v.72h-2.89a10 10 0 0 0 .51 1.64 5.71 5.71 0 0 0 1.07-1.51zm-4.25-1.79-.13-.51a9.53 9.53 0 0 0 -2.16.41 3.53 3.53 0 0 0 -.2-.67 1.52 1.52 0 0 0 .61-.54c.12-.15.43-.57.76-1.08a5.16 5.16 0 0 0 -1.28.25 4 4 0 0 0 -.2-.66c.14 0 .29-.19.44-.44a9.82 9.82 0 0 0 1-2.07l.67.22a12.37 12.37 0 0 1 -1.2 2.17l1-.09c.14-.27.29-.53.41-.81l.64.25a15.93 15.93 0 0 1 -1.78 2.63l1.16-.15c-.09-.27-.18-.52-.28-.76l.57-.15a11.71 11.71 0 0 1 .61 1.77zm4.33-.21c0-.14-.08-.33-.16-.54a11.15 11.15 0 0 0 -2.17.42 5.21 5.21 0 0 0 -.24-.69c.2 0 .37-.24.6-.53a10.17 10.17 0 0 0 .72-1.07 4.39 4.39 0 0 0 -1.21.24 3.56 3.56 0 0 0 -.23-.67c.15 0 .28-.17.42-.4a9 9 0 0 0 .87-1.88l.67.2a11.4 11.4 0 0 1 -1 2l.88-.09a8.09 8.09 0 0 0 .42-.83l.68.25a16.87 16.87 0 0 1 -1.75 2.69l1.2-.17c-.09-.24-.19-.49-.29-.72l.54-.16a12.4 12.4 0 0 1 .68 1.78z" fill="#121a50"/><path d="m125.81 73.48c-1.21.61-2.52 1.25-3.52 1.73l-.35-.88 1.63-.7v-3.76h-1.4v-.87h1.4v-2.46h.83v2.46h1.29v.84h-1.29v3.37l1.22-.55zm2.19-1.38a6.48 6.48 0 0 1 -.51.84h5.16s0 .24 0 .36c-.18 2.47-.37 3.41-.71 3.76a1 1 0 0 1 -.67.3c-.26 0-.71 0-1.19 0a1.53 1.53 0 0 0 -.2-.72h1s.27 0 .36-.13.38-1 .54-2.85h-.94a8.38 8.38 0 0 1 -2.44 3.75 3 3 0 0 0 -.64-.52 7 7 0 0 0 2.34-3.23h-1.1a9.11 9.11 0 0 1 -3 3.26 2.41 2.41 0 0 0 -.59-.55 8 8 0 0 0 2.7-2.68h-1.21a8.18 8.18 0 0 1 -1.56 1.36 4.09 4.09 0 0 0 -.61-.55 6.65 6.65 0 0 0 2.37-2.4h-1.67v-.75h7.57v.75zm4.08-1.42h-5.48v-3.88h5.48zm-.83-3.21h-3.83v1h3.83zm0 1.57h-3.83v1h3.83z" fill="#121a50"/><path d="m141.15 66.73a17.77 17.77 0 0 1 -1.26 2.55v8.09h-.89v-6.79a13.64 13.64 0 0 1 -1.25 1.49 8 8 0 0 0 -.5-.87 13.51 13.51 0 0 0 3-4.72zm2.15 7.15a19.48 19.48 0 0 1 -2 2.94 5.3 5.3 0 0 0 -.7-.52 13 13 0 0 0 1.94-2.67zm1.7-.88v4.4h-.88v-4.4h-3.47v-.82h3.47v-1.38h-2.59v-3.8h6.17v3.8h-2.7v1.42h3.4v.78zm-2.64-3h4.45v-2.19h-4.45zm4 3.61a20.79 20.79 0 0 1 2.07 2.69l-.72.44a18.47 18.47 0 0 0 -2-2.75z" fill="#121a50"/><path d="m161.2 72.1a7.2 7.2 0 0 1 -1.4 2.64 25.4 25.4 0 0 1 3.68 1.87l-.67.78a24 24 0 0 0 -3.72-2 10.59 10.59 0 0 1 -5.13 2 4.17 4.17 0 0 0 -.57-.89 10.29 10.29 0 0 0 4.73-1.5c-1.12-.47-2.28-.89-3.32-1.23.34-.46.73-1.05 1.11-1.69h-2.6v-.85h3.07a18.45 18.45 0 0 0 1-2.09l1 .18a17.14 17.14 0 0 1 -.9 1.91h2.91c.09-.37.16-.77.22-1.19l1 .1c-.06.38-.13.76-.21 1.09h2.19v.85zm-6.7-1.87h-.89v-2.4h4.46c-.17-.38-.39-.85-.59-1.22l1-.24c.25.46.56 1 .74 1.46h4.13v2.4h-.93v-1.57h-7.92zm2.5 1.87c-.27.47-.54.9-.8 1.29.86.27 1.77.62 2.67 1a6 6 0 0 0 1.3-2.26z" fill="#121a50"/><path d="m172.7 68.83c-.23.47-.47 1-.73 1.39h5.8v6.06c0 .54-.12.8-.5.94a7.13 7.13 0 0 1 -2.09.16 3.4 3.4 0 0 0 -.3-.88h1.74s.27-.07.27-.25v-1.25h-5.14a4.38 4.38 0 0 1 -1.22 2.43 2.94 2.94 0 0 0 -.63-.69 4.47 4.47 0 0 0 1.1-3.39v-1.75a10 10 0 0 1 -1.95 1.83 5.84 5.84 0 0 0 -.56-.69 9.87 9.87 0 0 0 3.23-3.91h-3v-.83h3.37c.2-.52.38-1 .53-1.55l.88.22a13.08 13.08 0 0 1 -.46 1.33h6.11v.84zm4.19 5.43v-1.26h-5v.36.89zm0-3.24h-5v1.21h5z" fill="#121a50"/><path d="m188.14 67.25c-.36 1-.79 2.14-1.2 3.09a3.83 3.83 0 0 1 1.06 2.66 1.65 1.65 0 0 1 -.47 1.38 1.09 1.09 0 0 1 -.63.23 4.12 4.12 0 0 1 -.79 0 2.2 2.2 0 0 0 -.23-.8 3.32 3.32 0 0 0 .69 0 .85.85 0 0 0 .38-.11 1.07 1.07 0 0 0 .25-.83 3.59 3.59 0 0 0 -1.08-2.43c.35-.87.71-1.9 1-2.69h-1.74v9.63h-.8v-10.45h2.87.13zm6.55 6a19 19 0 0 1 -2.06 1.43 5.16 5.16 0 0 0 2.31 1.9 4.15 4.15 0 0 0 -.61.76c-1.87-.89-3-2.72-3.59-5.1h-1.15v4l2.11-.52a6.56 6.56 0 0 0 .05.82 15.84 15.84 0 0 0 -3.07.94 2.87 2.87 0 0 0 -.39-.73.88.88 0 0 0 .44-.84v-8.91h5.27v5.24h-2.45a8.24 8.24 0 0 0 .71 1.8 21.19 21.19 0 0 0 1.87-1.41zm-5.1-5.46v1.41h3.52v-1.44zm0 3.67h3.52v-1.52h-3.52z" fill="#121a50"/><path d="m203.68 67.1a15.85 15.85 0 0 1 -3.51 5.1 7 7 0 0 0 -.79-.72 12.53 12.53 0 0 0 3.33-4.68zm3.37 5.7a37.56 37.56 0 0 1 2.69 4l-.89.49c-.17-.34-.4-.72-.65-1.15-6.21.43-6.87.47-7.34.63a4.44 4.44 0 0 0 -.35-.94c.33-.08.68-.47 1.13-1a27.41 27.41 0 0 0 3-4.73l1 .42a31.83 31.83 0 0 1 -3.51 5.15l5.54-.32c-.47-.74-1-1.52-1.49-2.16zm.25-6a8.73 8.73 0 0 0 3.18 4.62 4.68 4.68 0 0 0 -.69.83 10 10 0 0 1 -3.16-4.55h-2.23v-.9z" fill="#121a50"/><path d="m225 76.07c0 .62-.13.93-.54 1.08a7.66 7.66 0 0 1 -2.23.17 3.47 3.47 0 0 0 -.31-1h1.89s.29-.07.29-.3v-8h-8.62v-.85h9.52zm-2.27-5.95h-7.17v-.8h7.17zm-5.54 5.1v.88h-.87v-4.69h5.6v3.81zm0-3v2.23h3.81v-2.25z" fill="#121a50"/></svg>